<svg width="617" height="95" viewBox="0 0 617 95" fill="none" xmlns="http://www.w3.org/2000/svg">
<path d="M3.75 93C1.66667 93 0.625 91.8542 0.625 89.5625V6.8125C0.625 4.52083 1.66667 3.375 3.75 3.375H54.6875C56.9792 3.375 58.125 4.3125 58.125 6.1875V10.8125C58.125 12.6875 56.9792 13.625 54.6875 13.625H12.625V43.25H49.3125C51.6042 43.25 52.75 44.1875 52.75 46.0625V50.6875C52.75 52.5625 51.6042 53.5 49.3125 53.5H12.625V89.5625C12.625 91.8542 11.5833 93 9.5 93H3.75ZM205.438 60.1875C205.438 51.2292 207.604 43.3542 211.938 36.5625C216.271 29.7292 222.604 26.3125 230.938 26.3125C235.729 26.3125 239.562 27.1042 242.438 28.6875C245.312 30.2708 247.896 32.4375 250.188 35.1875H250.312C250.229 33.9375 250.188 32.6667 250.188 31.375V3.5625C250.188 1.6875 251.125 0.75 253 0.75H258.375C260.25 0.75 261.188 1.6875 261.188 3.5625V90.1875C261.188 92.0625 260.25 93 258.375 93H253.125C251.625 93 250.812 92.0625 250.688 90.1875L250.312 85.1875H250.188C247.896 87.9375 245.312 90.1042 242.438 91.6875C239.562 93.2708 235.729 94.0625 230.938 94.0625C222.604 94.0625 216.271 90.6667 211.938 83.875C207.604 77.0417 205.438 69.1458 205.438 60.1875ZM217.062 60.1875C217.062 67.8542 218.375 74.0625 221 78.8125C223.667 83.5625 228.167 85.9375 234.5 85.9375C239 85.9375 242.729 84.4167 245.688 81.375C248.688 78.2917 250.188 73.625 250.188 67.375V53C250.188 46.75 248.688 42.1042 245.688 39.0625C242.729 35.9792 239 34.4375 234.5 34.4375C228.167 34.4375 223.667 36.8125 221 41.5625C218.375 46.3125 217.062 52.5208 217.062 60.1875ZM326.5 93C324.417 93 323.375 91.8542 323.375 89.5625V6.8125C323.375 4.52083 324.417 3.375 326.5 3.375H334.5C337.417 3.375 339.5 4.41667 340.75 6.5L379.875 72.0625H380.125C380.042 70.3958 380 68.7292 380 67.0625V6.8125C380 4.52083 381.042 3.375 383.125 3.375H388.875C390.958 3.375 392 4.52083 392 6.8125V89.5625C392 91.8542 390.958 93 388.875 93H383.375C380.458 93 378.375 91.9583 377.125 89.875L335.5 20.3125H335.25C335.333 21.9792 335.375 23.6458 335.375 25.3125V89.5625C335.375 91.8542 334.333 93 332.25 93H326.5ZM407.938 60.1875C407.938 49.8542 410.521 41.625 415.688 35.5C420.854 29.375 428.25 26.3125 437.875 26.3125C445.875 26.3125 452.5 29.125 457.75 34.75C463.042 40.3333 465.688 49.2708 465.688 61.5625C465.688 63.4375 464.833 64.375 463.125 64.375H419.562C420.271 72.4167 422.438 78.0208 426.062 81.1875C429.688 84.3125 433.792 85.875 438.375 85.875C443.208 85.875 446.917 85.0625 449.5 83.4375C452.083 81.8125 453.979 80.2083 455.188 78.625C456.521 76.875 457.812 76.5417 459.062 77.625L462.75 80.8125C463.708 81.6458 463.708 82.7917 462.75 84.25C461.958 85.4583 459.688 87.3958 455.938 90.0625C452.229 92.7292 446.375 94.0625 438.375 94.0625C427.958 94.0625 420.271 91 415.312 84.875C410.396 78.75 407.938 70.5208 407.938 60.1875ZM419.312 56.25H454.625C454.458 50.4167 452.958 45.3125 450.125 40.9375C447.292 36.5208 443.125 34.3125 437.625 34.3125C432.792 34.3125 428.688 35.9375 425.312 39.1875C421.938 42.3958 419.938 48.0833 419.312 56.25ZM474.875 30.4375C474.333 28.3958 474.896 27.375 476.562 27.375H483.125C484.625 27.375 485.562 28.1875 485.938 29.8125L495.125 71.0625C495.417 72.2708 495.854 74.1667 496.438 76.75C497.062 79.3333 497.5 81.2292 497.75 82.4375H498C498.208 81.2708 498.562 79.5208 499.062 77.1875C499.604 74.8542 500.104 72.8125 500.562 71.0625L511.562 29.8125C511.979 28.1875 512.917 27.375 514.375 27.375H520C521.458 27.375 522.396 28.1875 522.812 29.8125L533.812 71.0625C534.271 72.8125 534.75 74.8542 535.25 77.1875C535.792 79.5208 536.167 81.2708 536.375 82.4375H536.625C536.875 81.2292 537.292 79.3333 537.875 76.75C538.5 74.1667 538.958 72.2708 539.25 71.0625L548.438 29.8125C548.812 28.1875 549.75 27.375 551.25 27.375H557.812C559.479 27.375 560.042 28.3958 559.5 30.4375L544 89.1875C543.333 91.7292 542.208 93 540.625 93H533.125C531.542 93 530.417 91.7292 529.75 89.1875L519.125 47.875C518.375 44.9583 517.896 42.9167 517.688 41.75C517.521 40.5833 517.375 39.4792 517.25 38.4375H517.125C517 39.4792 516.833 40.5833 516.625 41.75C516.458 42.9167 516 44.9583 515.25 47.875L504.625 89.1875C503.958 91.7292 502.833 93 501.25 93H493.75C492.167 93 491.042 91.7292 490.375 89.1875L474.875 30.4375ZM567.812 86.875C566.521 85.6667 566.25 84.5417 567 83.5L569.812 79.5625C570.729 78.3125 572.083 78.375 573.875 79.75C576.333 81.625 579.062 83.125 582.062 84.25C585.104 85.375 588.562 85.9375 592.438 85.9375C594.729 85.9375 596.771 85.6667 598.562 85.125C600.354 84.5417 601.917 83.4792 603.25 81.9375C604.625 80.3958 605.312 78.3333 605.312 75.75C605.312 74.25 604.979 72.8333 604.312 71.5C603.688 70.1667 602.688 69.1042 601.312 68.3125C599.979 67.4792 598.667 66.8333 597.375 66.375C595.25 65.5833 593.125 64.9375 591 64.4375C588.917 63.8958 586.167 63.0833 582.75 62C580.458 61.2917 578.292 60.2917 576.25 59C574.208 57.6667 572.417 55.875 570.875 53.625C569.375 51.375 568.625 48.2708 568.625 44.3125C568.625 40.2708 569.854 36.7917 572.312 33.875C574.771 30.9583 577.854 28.9792 581.562 27.9375C585.271 26.8542 588.875 26.3125 592.375 26.3125C597.542 26.3125 601.688 26.9167 604.812 28.125C607.979 29.2917 610.708 30.6875 613 32.3125C614.333 33.2708 614.521 34.375 613.562 35.625L610.75 39.375C609.875 40.5833 608.521 40.5417 606.688 39.25C605.146 38.1667 602.958 37.1458 600.125 36.1875C597.292 35.2292 594.812 34.75 592.688 34.75C590.062 34.75 587.812 35.0417 585.938 35.625C584.062 36.2083 582.542 37.2083 581.375 38.625C580.208 40.0417 579.625 41.7083 579.625 43.625C579.625 45.0833 579.854 46.3958 580.312 47.5625C580.771 48.6875 581.625 49.7292 582.875 50.6875C584.125 51.6458 585.875 52.4167 588.125 53C591.625 53.9167 594.812 54.75 597.688 55.5C600.604 56.25 603.229 57.1667 605.562 58.25C608.604 59.6667 610.938 61.2292 612.562 62.9375C614.229 64.6458 615.375 66.5 616 68.5C616.625 70.4583 616.938 72.6458 616.938 75.0625C616.938 79.5208 615.604 83.2917 612.938 86.375C610.312 89.4583 607.375 91.5208 604.125 92.5625C600.875 93.5625 596.958 94.0625 592.375 94.0625C586.167 94.0625 580.833 93.1875 576.375 91.4375C571.958 89.6458 569.104 88.125 567.812 86.875Z" fill="#4F46E5"/>
<path d="M68.1875 60.1875C68.1875 49.8542 70.7708 41.625 75.9375 35.5C81.1042 29.375 88.5 26.3125 98.125 26.3125C106.125 26.3125 112.75 29.125 118 34.75C123.292 40.3333 125.938 49.2708 125.938 61.5625C125.938 63.4375 125.083 64.375 123.375 64.375H79.8125C80.5208 72.4167 82.6875 78.0208 86.3125 81.1875C89.9375 84.3125 94.0417 85.875 98.625 85.875C103.458 85.875 107.167 85.0625 109.75 83.4375C112.333 81.8125 114.229 80.2083 115.438 78.625C116.771 76.875 118.062 76.5417 119.312 77.625L123 80.8125C123.958 81.6458 123.958 82.7917 123 84.25C122.208 85.4583 119.938 87.3958 116.188 90.0625C112.479 92.7292 106.625 94.0625 98.625 94.0625C88.2083 94.0625 80.5208 91 75.5625 84.875C70.6458 78.75 68.1875 70.5208 68.1875 60.1875ZM79.5625 56.25H114.875C114.708 50.4167 113.208 45.3125 110.375 40.9375C107.542 36.5208 103.375 34.3125 97.875 34.3125C93.0417 34.3125 88.9375 35.9375 85.5625 39.1875C82.1875 42.3958 80.1875 48.0833 79.5625 56.25ZM136.812 60.1875C136.812 49.8542 139.396 41.625 144.562 35.5C149.729 29.375 157.125 26.3125 166.75 26.3125C174.75 26.3125 181.375 29.125 186.625 34.75C191.917 40.3333 194.562 49.2708 194.562 61.5625C194.562 63.4375 193.708 64.375 192 64.375H148.438C149.146 72.4167 151.312 78.0208 154.938 81.1875C158.562 84.3125 162.667 85.875 167.25 85.875C172.083 85.875 175.792 85.0625 178.375 83.4375C180.958 81.8125 182.854 80.2083 184.062 78.625C185.396 76.875 186.688 76.5417 187.938 77.625L191.625 80.8125C192.583 81.6458 192.583 82.7917 191.625 84.25C190.833 85.4583 188.562 87.3958 184.812 90.0625C181.104 92.7292 175.25 94.0625 167.25 94.0625C156.833 94.0625 149.146 91 144.188 84.875C139.271 78.75 136.812 70.5208 136.812 60.1875ZM148.188 56.25H183.5C183.333 50.4167 181.833 45.3125 179 40.9375C176.167 36.5208 172 34.3125 166.5 34.3125C161.667 34.3125 157.562 35.9375 154.188 39.1875C150.812 42.3958 148.812 48.0833 148.188 56.25Z" fill="#1E3A8A"/>
</svg>
